# xmcd
#
# Track frame offsets:
#	150
#	31146
#	51944
#	74643
#	96292
#	117253
#	143229
#	174687
#	199441
#	226217
#
# Disc length: 3168 seconds
#
# Revision: 0
# Processed by: cddbd v1.5.2PL0 Copyright (c) Steve Scherf et al.
# Submitted via: EasyCDDAExtractor 9.0.0.1
#
DISCID=940c5e0a
DTITLE=Deep Purple - Palalido Milan 02-03-06 Disc 1
DYEAR=2006
DGENRE=Hard Rock
TTITLE0=Pictures Of Home
TTITLE1=Things I Never Said
TTITLE2=Wrong Man
TTITLE3=Vavoom Ted The Mechanic
TTITLE4=Livin' Wreck
TTITLE5=Rapture Of The Deep
TTITLE6=Before Time Began
TTITLE7=Mary Long
TTITLE8=Contact Lost - Steve Solo
TTITLE9=The Well Dressed Guitar
EXTD=
EXTT0=
EXTT1=
EXTT2=
EXTT3=
EXTT4=
EXTT5=
EXTT6=
EXTT7=
EXTT8=
EXTT9=
PLAYORDER=
